<svg width="24" height="25" viewBox="0 0 24 25" fill="none" xmlns="http://www.w3.org/2000/svg">
<g clip-path="url(#clip0_1_245)">
<path d="M12 0.5C5.36842 0.5 0 5.86842 0 12.5C0 19.1316 5.36842 24.5 12 24.5C18.6316 24.5 24 19.1316 24 12.5C24 5.86842 18.6316 0.5 12 0.5Z" fill="#412F8B" fill-opacity="0.1"/>
<path d="M17.5486 9.19057L11.3717 16.9843C11.2075 17.199 10.9549 17.3253 10.6896 17.3379H10.6391C10.3865 17.3379 10.1465 17.2369 9.96962 17.06L6.25594 13.3464C5.88962 12.98 5.88962 12.3737 6.25594 12.0074C6.62225 11.6411 7.22857 11.6411 7.59489 12.0074L10.5507 14.9632L16.058 8.0032C16.3865 7.59899 16.9801 7.5232 17.3844 7.85162C17.8012 8.19268 17.8644 8.78636 17.5486 9.19057Z" fill="white"/>
</g>
<defs>
<clipPath id="clip0_1_245">
<rect width="24" height="24" fill="white" transform="translate(0 0.5)"/>
</clipPath>
</defs>
</svg>
