<svg width="160" height="39" viewBox="0 0 160 39" fill="none" xmlns="http://www.w3.org/2000/svg">
<g clip-path="url(#clip0_178_279)">
<path d="M18.9514 0.546875C8.48667 0.546875 0 9.03355 0 19.4983C0 29.9631 8.48667 38.4547 18.9514 38.4547C29.4162 38.4547 37.9078 29.968 37.9078 19.4983C37.9078 9.02864 29.4211 0.546875 18.9514 0.546875ZM23.4868 26.3112V27.7936H18.1955V11.1834H19.7122V26.3112H23.4868ZM30.177 30.7141C27.1731 33.7131 23.1923 35.3624 18.9514 35.3624C14.7106 35.3624 10.7347 33.7131 7.73568 30.7141C4.74154 27.7199 3.0874 23.7294 3.0874 19.4934C3.0874 10.7515 10.2046 3.62937 18.9514 3.62937C19.1429 3.62937 19.5159 3.62937 19.7122 3.64409V5.12644C19.5306 5.11662 19.1232 5.11171 18.9514 5.11171C15.118 5.11171 11.5054 6.60878 8.78609 9.32314C6.06682 12.0424 4.56975 15.655 4.56975 19.4934C4.56975 23.3318 6.06191 26.9493 8.78609 29.6588C11.5054 32.3731 15.113 33.8751 18.9514 33.8751C26.5644 33.8751 32.803 27.9408 33.3086 20.4653V20.2493H23.4917V18.7719H34.8204V19.4934C34.8204 23.7294 33.1662 27.715 30.177 30.7141ZM15.1719 13.4462C15.1719 14.7028 14.1559 15.7188 12.8993 15.7188C11.6428 15.7188 10.6317 14.6979 10.6317 13.4462C10.6317 12.1946 11.6477 11.1785 12.8993 11.1785C14.151 11.1785 15.1719 12.1946 15.1719 13.4462Z" fill="white"/>
<path d="M52.1958 7.1582H46.4922V31.8378H64.0005V27.0324H52.1958V7.1582Z" fill="white"/>
<path d="M76.5403 22.4332H81.1837V26.7477C80.3296 27.0716 78.6608 27.4005 77.0705 27.4005C71.9412 27.4005 70.2281 24.7941 70.2281 19.5028C70.2281 14.2116 71.8577 11.4776 76.987 11.4776C79.8388 11.4776 81.4684 12.3758 82.8084 14.0839L86.3523 10.8247C84.1926 7.73243 80.4033 6.79492 76.8643 6.79492C68.8832 6.79492 64.6914 11.1536 64.6914 19.4587C64.6914 27.7637 68.4758 32.2009 76.825 32.2009C80.6536 32.2009 84.3987 31.2242 86.4357 29.8007V17.8291H76.5403V22.4332Z" fill="white"/>
<path d="M115.461 10.0542C113.316 7.67358 109.846 6.78516 106.68 6.78516C99.3962 6.78516 94.9688 11.1438 94.9688 19.5176C94.9688 27.8914 98.3703 32.2501 106.612 32.2501C109.674 32.2501 112.909 31.5334 115.088 30.2425L113.861 26.1244C112.089 27.0079 109.468 27.5871 106.985 27.5871C101.811 27.5871 100.447 24.2837 100.447 19.4489C100.447 13.8337 102.965 11.1438 106.882 11.1438C109.193 11.1438 111.137 12.1648 112.462 13.5293L115.457 10.0542H115.461Z" fill="white"/>
<path d="M134.521 7.1582V27.2337H133.903L126.81 7.1582H117.199V31.8378H122.397V11.4482H123.06L130.069 31.8378H139.665V7.1582H134.521Z" fill="white"/>
<path d="M159.724 8.7927C157.412 7.43307 153.903 6.78516 151.419 6.78516C144.852 6.78516 141.818 9.71058 141.818 13.8975C141.818 17.5052 144.543 19.6845 147.502 20.8429C148.965 21.3877 150.6 21.9326 151.827 22.2712C153.8 22.8161 154.585 23.7683 154.585 25.1329C154.585 26.8361 153.392 27.857 150.261 27.857C148.116 27.857 145.323 27.0079 143.315 25.8495L141.445 30.002C143.998 31.4647 147.439 32.2501 150.295 32.2501C156.421 32.2501 159.999 29.1872 159.999 24.9316C159.999 20.9165 157.854 19.4833 155.469 18.4623C154.551 18.0893 152.813 17.5444 151.895 17.2696C148.832 16.4204 147.164 15.6351 147.164 13.6275C147.164 12.1304 148.15 10.972 151.522 10.972C153.937 10.972 156.323 11.7918 157.957 12.744L159.729 8.79761L159.724 8.7927Z" fill="white"/>
</g>
<defs>
<clipPath id="clip0_178_279">
<rect width="160" height="37.9078" fill="white" transform="translate(0 0.546875)"/>
</clipPath>
</defs>
</svg>
