<svg width="26" height="32" viewBox="0 0 26 32" fill="none" xmlns="http://www.w3.org/2000/svg">
<path d="M22.6245 17.6828C23.3837 16.9235 24.6147 16.9235 25.374 17.6828C26.1333 18.4421 26.1333 19.6731 25.374 20.4323L14.3758 31.4305C13.6165 32.1898 12.3855 32.1898 11.6263 31.4305L0.628045 20.4323C-0.131223 19.6731 -0.131223 18.4421 0.628045 17.6828C1.38731 16.9235 2.61833 16.9235 3.3776 17.6828L11.0585 25.3637L11.0585 1.94423C11.0585 0.870459 11.929 -1.28045e-08 13.0027 0C14.0765 1.28046e-08 14.9469 0.870459 14.9469 1.94423L14.9469 25.3603L22.6245 17.6828Z" fill="white"/>
</svg>
